{"glyphs":{":":{"x_min":0,"x_max":250,"ha":250,"o":"m 125 456 q 157 456 179 433 q 201 410 201 378 q 201 347 179 324 q 157 301 125 301 q 93 301 71 323 q 48 346 48 378 q 48 411 71 433 q 93 456 125 456 z m 125 140 q 156 140 179 117 q 201 95 201 62 q 201 30 179 7 q 156 -15 125 -15 q 94 -15 71 8 q 48 30 48 62 q 48 94 71 117 q 93 140 125 140 z"},"$":{"x_min":0,"x_max":500,"ha":500,"o":"m 472 218 q 472 124 417 61 q 361 -1 267 -15 l 267 -111 l 262 -116 l 225 -116 l 220 -111 l 220 -18 q 125 -18 32 22 l 29 28 q 39 85 40 178 l 45 183 l 74 183 l 80 178 l 81 142 q 81 118 87 98 q 131 41 220 36 l 220 278 q 122 297 80 333 q 24 380 24 463 q 24 581 118 640 q 161 667 220 674 l 220 723 l 225 729 l 261 729 l 267 724 l 267 676 q 363 672 430 641 l 433 633 q 427 606 423 539 l 420 498 l 415 493 l 385 493 l 380 498 q 378 522 378 533 q 378 562 374 573 q 342 619 267 622 l 267 403 q 366 389 413 354 q 472 309 472 218 z m 220 411 l 220 620 q 130 597 130 509 q 130 429 220 411 z m 364 165 q 364 254 267 271 l 267 40 q 312 52 338 85 q 364 119 364 165 z"},"?":{"x_min":0,"x_max":444,"ha":444,"o":"m 175 193 q 167 203 159 222 q 152 242 152 261 q 152 289 164 314 q 175 339 201 370 l 228 402 q 244 420 260 450 q 277 480 277 511 q 277 547 252 572 q 226 596 180 596 q 157 596 141 591 q 125 586 117 580 q 110 573 99 550 q 88 527 81 505 l 74 501 l 48 506 l 44 513 l 64 584 q 74 616 76 645 q 104 669 144 681 q 185 693 228 693 q 282 693 323 675 q 365 656 388 618 q 411 581 411 539 q 411 494 390 457 q 369 419 321 381 l 288 355 q 200 287 200 246 q 200 229 209 208 l 207 201 l 183 190 z m 195 139 q 227 139 249 116 q 271 94 271 62 q 271 30 249 8 q 227 -15 195 -15 q 164 -15 142 7 q 120 30 120 62 q 120 94 142 117 q 165 139 195 139 z"},"<":{"x_min":0,"x_max":500,"ha":500,"o":"m 485 7 l 16 220 l 16 295 l 485 508 l 485 422 l 129 258 l 485 93 z"},"'":{"x_min":0,"x_max":227,"ha":227,"o":"m 165 657 q 165 651 162 633 l 156 602 l 128 458 l 95 458 l 71 602 q 70 610 65 633 q 62 652 62 657 q 62 679 77 694 q 92 708 114 708 q 135 708 150 694 q 165 679 165 657 z"},"=":{"x_min":0,"x_max":500,"ha":500,"o":"m 485 349 l 16 349 l 16 433 l 485 433 z m 485 172 l 16 172 l 16 256 l 485 256 z"},"a":{"x_min":0,"x_max":500,"ha":500,"o":"m 477 3 l 472 -2 q 431 0 377 0 q 336 0 298 -2 l 293 3 l 298 68 l 203 -4 q 192 -12 171 -14 q 163 -15 151 -15 q 97 -15 68 18 q 39 50 39 108 q 39 184 87 216 q 140 250 298 278 q 298 356 257 382 q 232 398 197 398 q 159 398 137 383 l 119 337 l 112 334 l 87 340 l 84 347 l 86 404 q 167 464 208 472 q 225 475 252 475 q 348 475 389 425 q 419 388 419 312 q 419 294 417 253 q 415 185 415 162 q 415 88 417 68 q 420 47 429 42 q 438 37 472 36 l 477 30 z m 298 117 l 298 237 q 217 219 189 199 q 161 179 161 137 q 161 71 219 71 q 269 71 298 117 z m 259 497 z m 259 -38 z"},"L":{"x_min":0,"x_max":606,"ha":606,"o":"m 569 163 q 558 92 558 2 l 553 -3 l 198 0 q 109 0 73 -3 l 68 2 l 68 16 l 70 21 q 106 44 109 50 q 114 59 115 115 l 116 225 l 116 472 q 116 588 110 624 q 107 638 93 642 q 86 644 36 646 l 31 651 l 31 685 l 36 689 q 86 686 184 686 q 284 686 336 689 l 341 685 l 341 651 l 336 646 q 287 644 279 642 q 265 638 263 624 q 256 588 256 472 l 256 180 q 256 116 259 56 l 325 56 q 468 56 500 67 q 505 69 508 73 q 513 80 517 102 l 529 163 l 534 168 l 563 168 z"},"3":{"x_min":0,"x_max":500,"ha":500,"o":"m 458 227 q 458 123 371 51 q 284 -21 167 -21 q 105 -21 48 5 q 40 90 25 149 l 28 156 l 52 163 l 58 161 q 106 37 213 37 q 268 37 302 73 q 335 109 335 171 q 335 233 298 267 q 264 299 205 299 q 178 299 147 291 l 141 297 q 152 332 160 371 l 200 371 q 243 371 275 402 q 307 433 307 476 q 307 517 279 542 q 250 567 208 567 q 142 567 118 533 q 107 517 97 487 l 91 471 l 84 466 l 60 468 l 55 475 l 72 554 q 79 588 83 620 q 146 668 242 668 q 324 668 372 628 q 418 589 418 526 q 418 435 310 378 q 364 378 409 341 q 458 301 458 227 z"},";":{"x_min":0,"x_max":250,"ha":250,"o":"m 130 456 q 161 456 184 433 q 206 411 206 378 q 206 346 184 323 q 161 301 130 301 q 98 301 76 323 q 53 346 53 378 q 53 410 75 433 q 98 456 130 456 z m -26 -160 q 41 -33 56 103 l 109 114 q 149 122 188 138 l 206 122 q 187 76 141 -7 q 95 -91 59 -142 l -11 -172 z"},"J":{"x_min":0,"x_max":389,"ha":389,"o":"m 362 651 l 357 646 q 307 644 300 642 q 286 638 283 624 q 277 588 277 472 l 277 109 q 277 11 256 -44 q 232 -106 170 -161 q 102 -220 40 -220 q 20 -220 0 -213 q 2 -176 2 -123 l 14 -116 q 53 -151 83 -151 q 125 -151 130 -107 q 137 -49 137 66 l 137 472 q 137 588 130 624 q 128 638 114 642 q 110 643 45 646 l 41 651 l 41 685 l 45 689 q 113 686 207 686 q 313 686 357 689 l 362 685 z"},"V":{"x_min":0,"x_max":778,"ha":778,"o":"m 762 651 l 757 646 q 723 643 713 638 q 704 633 693 616 q 681 597 651 524 l 616 441 l 551 282 q 466 77 437 -6 l 363 -6 l 139 537 q 103 622 89 635 q 78 645 29 646 l 24 651 l 24 684 l 30 689 q 81 686 159 686 q 257 686 337 689 l 342 684 l 342 651 l 337 646 q 288 646 272 637 q 264 632 264 621 q 264 608 296 528 l 319 470 l 442 165 l 551 437 q 557 452 580 515 q 613 606 613 621 q 613 637 603 641 q 592 644 537 646 l 532 651 l 532 684 l 538 689 q 593 686 652 686 q 695 686 756 689 l 762 684 z"},"\"":{"x_min":0,"x_max":385,"ha":385,"o":"m 157 657 q 157 651 153 633 l 147 602 l 120 458 l 86 458 l 63 602 q 62 610 57 633 q 54 652 54 657 q 54 679 69 694 q 84 708 105 708 q 127 708 142 694 q 157 679 157 657 z m 332 657 q 332 651 328 633 l 322 602 l 294 458 l 261 458 l 238 602 q 236 610 232 633 q 229 652 229 657 q 229 679 244 694 q 259 708 280 708 q 302 708 317 694 q 332 679 332 657 z"},"7":{"x_min":0,"x_max":500,"ha":500,"o":"m 492 618 q 378 411 307 250 q 243 105 206 3 l 198 -2 q 176 0 150 0 q 124 0 93 -2 l 88 8 l 299 371 q 325 415 339 443 l 385 533 l 382 542 l 258 542 l 171 541 q 128 540 117 536 q 109 533 104 521 q 99 510 89 429 l 83 424 l 53 425 l 48 430 q 51 484 51 534 q 51 592 48 660 l 54 665 q 171 660 282 660 q 427 660 486 662 l 492 658 z"},"S":{"x_min":0,"x_max":611,"ha":611,"o":"m 559 226 q 559 145 513 83 q 473 29 408 3 q 348 -21 266 -21 q 163 -21 64 25 l 59 36 q 72 92 72 196 l 77 201 l 108 201 l 113 196 l 113 185 q 113 157 119 112 q 136 81 182 59 q 229 35 280 35 q 377 35 414 103 q 433 137 433 174 q 433 237 381 264 q 355 277 297 286 q 167 306 126 336 q 64 382 64 478 q 64 578 131 638 q 203 700 330 700 q 444 700 514 664 l 518 652 q 506 594 503 512 l 498 507 l 467 507 l 462 512 q 461 571 458 588 q 442 611 405 627 q 365 644 321 644 q 256 644 218 609 q 182 577 182 525 q 182 469 223 442 q 249 425 347 410 q 357 408 404 400 q 433 395 458 386 q 507 367 532 329 q 559 288 559 226 z"},"}":{"x_min":0,"x_max":310,"ha":310,"o":"m 310 299 l 274 294 q 257 292 243 282 q 224 268 218 239 q 215 225 215 196 l 215 15 q 215 -63 171 -95 q 134 -121 52 -121 q 44 -121 18 -121 l 18 -101 q 106 -92 114 -29 q 115 -21 115 10 l 115 180 q 115 244 139 271 q 162 298 215 309 q 162 320 139 347 q 115 375 115 438 l 115 608 q 115 639 114 647 q 106 710 18 719 l 18 739 l 52 739 q 134 739 171 713 q 215 682 215 604 l 215 422 q 215 373 228 353 q 234 343 243 336 q 257 326 274 324 l 310 319 z"},"Z":{"x_min":0,"x_max":667,"ha":667,"o":"m 625 169 q 615 81 610 1 l 605 -3 q 404 1 300 1 q 224 1 30 -3 l 25 1 l 25 36 q 62 81 136 187 l 207 288 l 298 422 q 344 489 434 628 l 312 627 q 169 627 148 621 q 135 617 130 601 q 128 595 122 556 l 118 531 l 113 526 l 83 526 l 78 532 q 82 584 82 625 q 82 639 81 684 l 85 689 q 152 686 381 686 q 436 686 617 689 l 622 684 l 622 655 l 582 599 q 519 512 474 445 l 329 233 q 305 198 215 59 q 241 58 294 58 q 542 58 558 71 q 566 79 580 146 q 583 161 585 170 l 591 175 l 620 175 z"},"x":{"x_min":0,"x_max":500,"ha":500,"o":"m 482 4 l 477 -1 q 452 0 403 0 q 340 0 328 -1 q 319 11 298 46 q 287 64 266 100 l 229 166 q 167 84 113 -1 q 97 0 71 0 q 38 0 27 -1 l 21 4 l 21 33 l 27 38 q 54 39 63 45 q 73 51 106 91 q 142 135 201 212 l 137 319 q 109 366 98 381 q 86 398 77 404 q 68 409 54 409 q 50 409 34 407 l 27 412 l 21 438 l 26 445 q 108 461 167 476 q 204 448 280 312 q 316 359 361 426 l 387 465 q 417 463 438 463 q 457 463 476 465 l 482 459 l 482 431 l 477 426 q 451 424 442 419 q 433 415 409 387 q 393 370 351 318 l 309 268 l 379 143 q 429 55 443 46 q 449 42 477 38 l 482 33 z"},")":{"x_min":0,"x_max":333,"ha":333,"o":"m 53 724 l 61 724 q 136 673 203 567 q 271 461 271 305 q 271 232 258 175 q 245 118 211 59 q 177 0 135 -44 q 92 -89 59 -109 l 52 -108 l 34 -89 l 34 -82 q 85 -26 112 57 q 139 140 139 297 q 139 375 132 442 q 125 509 113 553 q 102 598 85 628 q 68 658 35 700 l 34 707 z"},"&":{"x_min":0,"x_max":833,"ha":833,"o":"m 807 116 l 816 94 l 815 86 q 805 78 770 40 q 735 1 725 -13 q 690 -21 668 -21 q 613 -21 567 1 q 520 23 483 51 q 395 -21 276 -21 q 166 -21 106 39 q 47 99 47 180 q 47 250 90 298 q 133 346 204 380 q 171 455 171 516 q 171 559 188 578 l 234 633 q 264 668 276 676 q 287 684 313 692 q 338 700 365 700 q 417 700 448 670 q 478 640 478 590 q 478 540 442 494 q 407 448 319 393 q 356 333 415 266 q 474 199 527 159 q 559 210 559 255 q 559 276 553 296 q 547 316 540 329 l 452 329 l 447 335 q 460 354 479 397 q 553 395 584 395 q 729 395 793 403 l 798 399 q 782 354 781 326 l 776 321 q 710 327 633 328 q 638 306 638 287 q 638 252 625 217 q 611 181 571 132 q 602 110 645 96 q 688 83 726 83 q 737 83 745 85 q 754 88 800 119 z m 298 435 q 342 465 366 498 q 390 530 390 567 q 390 598 373 617 q 355 637 328 637 q 298 637 281 616 q 263 595 263 563 q 263 508 298 435 z m 224 339 q 201 325 184 300 q 167 274 167 240 q 167 189 193 146 q 219 103 258 77 q 297 50 344 50 q 395 50 441 82 q 371 142 322 199 q 273 257 224 339 z"},"_":{"x_min":0,"x_max":500,"ha":500,"o":"m 500 -163 l 0 -163 l 0 -103 l 500 -103 z"},"v":{"x_min":0,"x_max":556,"ha":556,"o":"m 546 426 l 541 421 q 511 419 502 414 q 495 410 485 392 q 476 375 449 313 l 355 97 q 351 85 313 -8 l 228 -8 q 201 69 168 149 q 117 278 81 370 q 65 411 46 418 q 36 422 18 422 l 12 428 l 12 456 l 18 461 q 62 459 148 459 q 223 459 266 461 l 271 456 l 271 427 l 266 422 q 229 421 219 417 q 208 414 208 404 q 208 391 268 232 q 300 148 310 126 q 341 200 369 270 q 416 385 416 404 q 416 415 406 418 q 396 421 357 422 l 352 427 l 352 456 l 357 461 q 395 459 446 459 q 501 459 541 461 l 546 456 z"},"O":{"x_min":0,"x_max":833,"ha":833,"o":"m 787 361 q 787 181 682 78 q 580 -21 403 -21 q 236 -21 141 73 q 46 167 46 334 q 46 569 225 659 q 307 700 426 700 q 596 700 691 611 q 787 520 787 361 z m 637 335 q 637 477 580 560 q 523 644 413 644 q 268 644 221 513 q 196 446 196 363 q 196 212 252 125 q 310 35 424 35 q 563 35 611 172 q 637 245 637 335 z m 414 -38 z m 414 717 z"},"(":{"x_min":0,"x_max":333,"ha":333,"o":"m 274 -109 q 223 -79 166 -5 q 109 68 86 140 q 62 211 62 305 q 62 397 85 470 q 108 542 160 612 q 211 683 272 724 l 280 724 l 299 707 l 299 700 q 266 659 249 629 q 232 599 220 554 q 208 509 202 442 q 195 375 195 297 q 195 149 219 65 q 243 -19 299 -82 l 299 -89 l 282 -108 z"},"C":{"x_min":0,"x_max":722,"ha":722,"o":"m 691 85 l 668 36 q 565 -21 438 -21 q 183 -21 89 163 q 46 248 46 347 q 46 507 152 602 q 261 700 450 700 q 569 700 684 657 l 690 649 q 673 582 669 492 l 665 487 l 636 487 l 631 492 q 630 551 626 574 q 565 643 450 643 q 331 643 264 568 q 196 493 196 364 q 196 189 316 96 q 380 46 488 46 q 585 46 679 97 z"},"W":{"x_min":0,"x_max":1000,"ha":1000,"o":"m 994 652 l 989 648 q 966 647 963 646 q 947 644 939 635 q 931 627 925 611 q 914 579 882 466 q 866 410 836 296 l 792 127 q 765 23 762 -6 l 687 -6 l 662 61 q 600 228 548 360 l 520 430 q 511 454 501 480 l 374 178 q 354 133 320 47 l 299 -6 l 228 -6 l 107 554 q 98 597 93 610 q 83 641 65 645 q 57 646 27 648 l 22 653 l 22 684 l 28 689 q 114 686 159 686 q 211 686 313 689 l 318 684 l 318 653 l 313 648 q 280 647 276 646 q 257 645 251 639 q 246 633 246 621 q 246 610 255 560 l 271 471 q 279 432 297 346 l 326 214 l 388 362 q 406 406 443 494 l 501 634 q 517 672 526 698 l 571 698 q 621 557 757 220 l 843 566 q 853 608 853 618 q 853 640 830 644 q 822 645 778 648 l 773 653 l 773 684 l 778 689 q 862 686 876 686 l 989 689 l 994 684 z"},"A":{"x_min":0,"x_max":778,"ha":778,"o":"m 754 2 l 750 -3 q 641 0 619 0 q 529 0 452 -3 l 447 2 l 447 33 l 452 38 l 495 41 q 521 42 521 60 q 521 70 508 105 l 468 208 q 401 209 331 209 q 292 209 217 208 l 196 149 q 171 81 171 64 q 171 45 194 42 q 207 40 244 38 l 249 33 l 249 2 l 244 -3 q 154 0 128 0 q 108 0 29 -3 l 24 1 l 24 33 l 29 38 q 80 41 91 58 q 103 75 177 262 l 305 581 q 319 618 348 692 l 417 692 l 676 83 q 691 49 703 44 q 719 39 750 39 l 754 33 z m 444 265 l 340 521 l 240 265 q 280 263 344 263 q 406 263 444 265 z m 382 717 z m 366 -38 z"},"f":{"x_min":0,"x_max":389,"ha":389,"o":"m 381 723 l 379 671 l 380 622 l 365 613 q 341 638 305 638 q 249 638 242 594 q 238 572 238 506 l 238 438 l 283 438 q 316 438 369 442 l 375 437 l 364 381 l 359 376 l 290 376 q 252 376 238 376 l 238 289 q 238 67 245 52 q 249 43 258 41 q 273 38 326 36 l 331 31 l 331 1 l 326 -3 l 290 -2 q 238 0 177 0 q 90 0 44 -3 l 39 1 l 39 31 l 44 36 q 91 38 102 43 q 112 48 113 67 q 116 130 116 289 l 116 376 q 105 376 103 376 q 98 376 75 375 q 63 375 44 374 l 39 378 l 39 394 l 43 400 l 87 423 q 100 429 114 437 q 116 440 116 446 l 116 453 q 116 528 126 556 q 131 570 146 589 q 151 594 210 650 l 240 679 q 253 692 274 710 q 301 730 339 730 q 360 730 381 723 z"},"Q":{"x_min":0,"x_max":833,"ha":833,"o":"m 787 361 q 787 247 743 161 q 697 72 610 25 q 524 -21 404 -21 q 389 -21 373 -21 q 416 -28 523 -66 l 600 -93 q 661 -114 697 -114 q 722 -114 773 -92 l 778 -96 l 778 -123 l 774 -129 q 685 -183 675 -193 q 628 -193 489 -151 q 348 -108 307 -108 q 284 -108 215 -150 l 208 -148 l 200 -125 l 202 -118 q 212 -109 249 -83 q 316 -38 357 -19 q 216 -9 133 82 q 46 176 46 334 q 46 504 146 602 q 246 700 426 700 q 646 700 739 552 q 787 476 787 361 z m 637 335 q 637 477 580 560 q 523 644 413 644 q 268 644 221 513 q 196 446 196 363 q 196 212 252 125 q 310 35 424 35 q 563 35 611 172 q 637 245 637 335 z"},"w":{"x_min":0,"x_max":833,"ha":833,"o":"m 820 427 l 814 422 q 786 421 778 418 q 770 415 764 406 q 759 398 744 357 q 726 309 708 256 l 651 86 q 644 64 637 38 l 624 -8 l 543 -8 l 490 123 l 412 304 q 344 163 292 33 l 275 -8 l 196 -8 q 194 -4 187 29 q 183 48 175 76 l 103 332 q 87 389 81 403 q 76 413 68 417 q 60 420 21 422 l 16 427 l 16 456 l 21 461 q 59 459 147 459 q 237 459 281 461 l 286 456 l 286 427 l 281 422 q 243 422 230 419 q 217 416 217 404 q 217 394 222 375 l 281 150 l 398 411 q 411 440 425 473 l 475 473 l 613 150 l 661 296 q 688 377 688 401 q 688 414 679 417 q 671 419 625 422 l 619 427 l 619 456 l 625 461 q 662 459 727 459 q 774 459 814 461 l 820 456 z"},"-":{"x_min":0,"x_max":333,"ha":333,"o":"m 284 191 l 24 191 l 17 199 q 24 212 36 250 q 47 287 49 302 l 307 302 l 316 292 q 297 260 284 191 z"},"E":{"x_min":0,"x_max":606,"ha":606,"o":"m 569 163 q 558 92 558 2 l 553 -3 l 198 0 q 109 0 73 -3 l 68 2 l 68 16 l 70 21 q 106 44 109 50 q 114 60 115 115 l 116 225 l 116 472 q 116 588 110 624 q 107 638 93 642 q 86 644 36 646 l 31 651 l 31 685 l 36 689 q 85 686 188 686 q 280 686 538 689 l 543 685 l 537 631 q 534 605 532 587 l 529 542 l 524 536 l 496 536 l 491 541 q 490 607 483 617 q 478 624 430 627 q 383 631 348 631 q 305 631 262 628 q 256 577 256 486 l 256 385 q 295 382 319 382 l 383 383 q 428 383 434 390 q 441 399 444 456 l 449 461 l 479 461 l 484 456 q 482 401 482 356 q 482 307 484 248 l 479 244 l 446 244 l 441 249 q 441 305 434 315 q 426 326 386 329 q 356 332 323 332 q 287 332 256 329 l 256 180 q 256 116 259 56 l 325 56 q 468 56 500 67 q 505 69 508 73 q 513 80 517 102 l 529 163 l 534 168 l 563 168 z m 321 -38 z m 321 717 z"},"s":{"x_min":0,"x_max":444,"ha":444,"o":"m 410 153 q 410 75 350 27 q 291 -21 195 -21 q 127 -21 50 8 l 44 15 q 49 60 50 85 l 52 146 l 57 152 l 86 152 l 92 146 q 94 92 96 82 q 138 29 205 29 q 248 29 274 50 q 300 71 300 106 q 300 150 261 165 q 244 171 195 182 q 114 199 87 221 q 45 254 45 319 q 45 390 97 433 q 150 478 242 478 q 320 478 372 451 l 376 443 q 371 421 368 331 l 363 326 l 335 326 l 330 331 q 328 366 323 388 q 292 427 233 427 q 195 427 171 408 q 146 390 146 359 q 146 319 188 305 q 207 299 260 289 q 342 272 369 251 q 410 219 410 153 z"},">":{"x_min":0,"x_max":500,"ha":500,"o":"m 485 220 l 16 7 l 16 93 l 371 258 l 16 422 l 16 508 l 485 295 z"},"l":{"x_min":0,"x_max":333,"ha":333,"o":"m 305 1 l 300 -3 q 254 0 167 0 q 79 0 33 -3 l 28 1 l 28 31 l 33 36 q 80 38 91 43 q 101 48 102 67 q 105 130 105 289 l 105 453 q 105 555 102 619 q 101 637 91 642 q 82 648 35 649 l 30 655 l 30 682 l 35 687 q 129 697 224 728 l 234 722 q 234 708 232 673 q 228 557 228 415 l 228 289 q 228 130 231 67 q 232 48 242 43 q 253 38 300 36 l 305 31 z"},"8":{"x_min":0,"x_max":500,"ha":500,"o":"m 466 207 q 466 150 445 106 q 406 22 318 -8 q 282 -21 230 -21 q 120 -21 61 62 q 35 99 35 160 q 35 233 82 280 q 98 295 151 324 q 53 379 53 479 q 53 593 156 646 q 201 669 258 669 q 342 669 391 627 q 437 587 437 522 q 437 435 343 380 q 412 351 440 309 q 466 270 466 207 z m 354 509 q 354 557 325 586 q 296 615 248 615 q 204 615 178 587 q 154 562 154 524 q 154 487 185 457 q 202 441 234 425 q 245 419 268 409 l 294 397 q 354 436 354 509 z m 357 151 q 357 221 294 257 q 253 280 206 299 l 193 305 q 124 251 124 171 q 124 125 141 96 q 179 32 248 32 q 296 32 327 65 q 357 99 357 151 z"},"\\":{"x_min":0,"x_max":296,"ha":296,"o":"m 304 -25 l 301 -32 l 235 -32 l 229 -28 l -9 729 l -5 736 l 60 736 l 67 732 z"},"e":{"x_min":0,"x_max":500,"ha":500,"o":"m 465 274 q 465 266 464 249 l 459 242 q 395 225 288 225 q 269 225 230 224 q 192 223 172 223 q 175 151 217 104 q 260 54 330 54 q 377 54 441 86 l 453 72 l 432 24 q 360 -21 277 -21 q 167 -21 106 41 q 45 103 45 217 q 45 354 110 404 q 200 473 281 473 q 368 473 416 423 q 465 371 465 274 z m 337 287 q 337 418 255 418 q 169 418 169 288 l 169 277 q 197 272 270 272 q 307 272 337 277 q 337 284 337 287 z m 278 -38 z m 278 497 z"},"b":{"x_min":0,"x_max":611,"ha":611,"o":"m 559 281 q 559 192 517 128 q 499 100 484 89 q 470 78 422 44 q 412 37 367 5 q 344 -11 314 -18 q 295 -21 272 -21 q 215 -21 150 19 l 104 -18 l 83 -10 q 92 146 92 261 l 92 453 q 92 478 89 571 q 89 597 87 617 q 84 643 61 647 q 56 648 21 649 l 16 655 l 16 682 l 21 687 q 114 697 209 728 l 220 722 q 214 539 214 439 l 214 387 l 273 437 q 317 473 374 473 q 492 473 538 379 q 559 335 559 281 z m 434 226 q 434 298 401 341 q 368 384 312 384 q 280 384 250 367 q 225 353 214 334 l 214 104 q 250 49 315 49 q 373 49 404 99 q 434 146 434 226 z"},"%":{"x_min":0,"x_max":889,"ha":889,"o":"m 851 165 q 851 85 803 36 q 755 -14 677 -14 q 601 -14 553 34 q 506 82 506 157 q 506 235 554 285 q 602 334 680 334 q 748 334 798 292 q 851 249 851 165 z m 642 724 l 276 -37 l 243 -37 l 240 -30 l 605 730 l 638 730 z m 384 539 q 384 460 336 410 q 289 360 210 360 q 107 360 60 445 q 39 482 39 531 q 39 609 87 659 q 135 708 213 708 q 289 708 337 662 q 384 615 384 539 z m 748 166 q 748 300 679 300 q 609 300 609 157 q 609 19 676 19 q 727 19 741 86 q 748 115 748 166 z m 281 540 q 281 675 212 675 q 143 675 143 532 q 143 394 209 394 q 257 394 273 455 q 281 483 281 540 z"},"m":{"x_min":0,"x_max":889,"ha":889,"o":"m 867 2 l 862 -3 q 833 0 761 0 q 701 0 676 -3 l 669 6 q 677 128 677 184 l 677 228 q 677 300 672 324 q 667 354 648 371 q 629 389 596 389 q 560 389 535 368 q 511 348 511 316 l 511 170 l 513 93 q 514 62 518 52 q 521 46 531 43 q 540 41 579 37 l 584 32 l 584 2 l 578 -3 q 519 0 458 0 q 383 0 330 -3 l 324 2 l 324 31 l 329 37 q 360 40 372 42 q 380 44 384 57 q 387 66 388 111 l 389 269 q 389 324 380 347 q 374 366 354 378 q 337 389 310 389 q 266 389 240 360 q 228 346 225 338 q 223 330 223 301 l 223 195 q 223 164 225 114 q 227 63 229 55 q 232 44 245 41 q 259 37 286 37 l 291 32 l 291 2 l 286 -3 q 245 0 162 0 q 75 0 29 -3 l 24 1 l 24 31 l 29 36 q 76 38 87 43 q 97 48 98 67 q 101 130 101 203 l 101 273 q 101 371 94 385 q 89 395 73 397 q 67 398 30 400 l 25 405 l 25 432 l 30 438 q 118 446 215 478 l 226 472 l 225 394 l 312 464 q 336 475 369 475 q 425 475 456 457 q 487 438 506 393 l 595 464 q 619 476 653 476 q 748 476 784 407 q 800 377 800 314 q 800 289 800 276 l 799 257 q 798 234 798 226 l 798 163 q 798 89 801 69 q 803 48 812 43 q 821 38 862 37 l 867 31 z"},"#":{"x_min":0,"x_max":481,"ha":481,"o":"m 84 0 l 115 167 l 43 167 l 57 243 l 130 243 l 167 443 l 95 443 l 109 519 l 181 519 l 208 664 l 245 664 l 218 519 l 330 519 l 356 664 l 393 664 l 366 519 l 438 519 l 424 443 l 352 443 l 314 243 l 387 243 l 373 167 l 300 167 l 269 0 l 232 0 l 264 167 l 152 167 l 121 0 z m 166 243 l 278 243 l 315 443 l 204 443 z"},",":{"x_min":0,"x_max":250,"ha":250,"o":"m 0 -160 q 66 -33 82 103 l 135 114 q 175 122 214 138 l 231 122 q 212 76 167 -7 q 121 -91 84 -142 l 15 -172 z"},"n":{"x_min":0,"x_max":611,"ha":611,"o":"m 590 2 l 585 -3 q 531 0 494 0 q 460 0 395 -3 l 390 1 q 398 110 398 169 l 398 265 q 398 384 312 384 q 268 384 242 354 q 221 328 221 301 l 221 210 q 221 83 227 55 q 231 38 284 37 l 289 32 l 289 2 l 284 -3 q 242 0 160 0 q 72 0 26 -3 l 21 1 l 21 31 l 26 36 q 73 38 84 43 q 94 48 95 67 q 99 130 99 203 l 99 273 q 99 371 91 385 q 86 395 70 397 q 64 398 28 400 l 23 405 l 23 432 l 28 438 q 116 446 213 478 l 224 472 l 223 390 l 307 460 q 339 473 377 473 q 455 473 494 426 q 525 388 525 314 q 525 306 523 247 q 521 187 521 162 q 521 88 523 68 q 526 47 535 42 q 543 37 585 36 l 590 31 z"},"h":{"x_min":0,"x_max":611,"ha":611,"o":"m 590 2 l 585 -3 q 531 0 494 0 q 460 0 395 -3 l 390 1 q 398 110 398 169 l 398 265 q 398 384 312 384 q 267 384 241 353 q 221 327 221 287 l 221 229 q 221 130 224 67 q 225 48 235 43 q 246 38 293 36 l 298 31 l 298 1 l 293 -3 q 247 0 160 0 q 72 0 26 -3 l 21 1 l 21 31 l 26 36 q 73 38 84 43 q 94 48 95 67 q 99 130 99 289 l 99 453 q 99 555 95 619 q 94 637 84 642 q 75 648 28 649 l 23 655 l 23 682 l 28 687 q 122 697 217 728 l 227 722 q 227 708 226 673 q 221 557 221 415 l 221 388 l 307 460 q 339 473 377 473 q 455 473 494 426 q 525 388 525 314 q 525 306 523 255 q 521 204 521 162 q 521 88 523 68 q 526 47 535 42 q 543 37 585 36 l 590 31 z"},"z":{"x_min":0,"x_max":500,"ha":500,"o":"m 463 150 q 452 50 452 0 l 449 -3 q 292 0 216 0 q 155 0 22 -3 l 17 1 l 17 29 q 67 85 289 406 l 232 406 q 121 406 110 397 q 104 392 102 372 q 101 364 95 333 l 94 326 l 89 321 l 60 321 l 55 326 q 59 413 59 428 q 59 443 58 458 l 62 462 q 79 461 111 460 q 122 459 231 458 l 302 458 q 334 458 448 461 l 453 456 l 453 426 l 364 307 q 332 263 288 199 l 223 106 q 197 69 187 52 l 239 51 q 268 51 334 54 q 394 56 401 62 q 407 68 423 150 l 428 155 l 458 155 z"},"B":{"x_min":0,"x_max":661,"ha":661,"o":"m 604 220 q 604 98 485 30 q 427 -3 334 -3 q 305 -3 286 -2 l 169 0 q 107 0 73 -3 l 68 2 l 68 16 l 70 21 q 106 44 109 50 q 114 59 115 115 l 116 225 l 116 472 q 116 588 110 624 q 107 638 93 642 q 86 644 36 646 l 31 651 l 31 685 l 36 689 q 80 686 186 686 q 253 686 307 688 q 350 690 380 690 q 516 690 559 628 q 581 596 581 553 q 581 484 527 438 q 501 416 473 405 q 441 393 403 384 q 604 375 604 220 z m 434 529 q 434 637 321 637 q 284 637 258 633 q 256 582 256 539 l 256 404 q 268 403 301 403 q 390 403 417 459 q 434 492 434 529 z m 455 205 q 455 352 301 352 q 281 352 256 350 l 256 124 q 256 87 258 52 q 278 49 314 49 q 383 49 420 92 q 455 133 455 205 z"},"K":{"x_min":0,"x_max":770,"ha":770,"o":"m 756 2 l 751 -3 q 671 0 640 0 q 613 0 554 -3 q 542 21 503 66 l 358 231 q 311 285 256 330 l 256 214 q 256 98 263 62 q 265 48 279 44 q 287 42 336 40 l 341 35 l 341 2 l 337 -3 q 288 0 187 0 q 82 0 36 -3 l 31 1 l 31 35 l 36 40 q 86 42 93 44 q 107 48 110 62 q 116 98 116 214 l 116 472 q 116 588 110 624 q 107 638 93 642 q 86 644 36 646 l 31 651 l 31 685 l 36 689 q 83 686 187 686 q 292 686 337 689 l 341 685 l 341 651 l 336 646 q 287 644 279 642 q 265 638 263 624 q 256 588 256 472 l 256 351 q 348 436 387 477 l 457 549 q 492 586 548 650 l 548 684 l 553 689 q 591 686 627 686 q 669 686 727 689 l 731 684 l 731 654 l 727 649 q 670 649 643 631 q 603 604 493 500 l 394 406 q 415 378 462 323 l 572 196 q 693 55 712 46 q 724 41 751 40 l 756 35 z"},"R":{"x_min":0,"x_max":714,"ha":714,"o":"m 700 2 l 695 -3 q 691 -3 676 -2 q 609 0 593 0 q 568 0 514 -3 q 512 9 495 36 l 374 238 l 320 321 q 310 336 291 351 l 296 367 q 308 367 313 367 q 361 367 388 382 q 413 396 434 430 q 455 464 455 511 q 455 594 394 623 q 364 636 308 636 q 284 636 261 632 q 256 584 256 469 l 256 214 q 256 98 263 62 q 265 48 279 44 q 287 42 336 40 l 341 35 l 341 2 l 337 -3 q 288 0 187 0 q 82 0 36 -3 l 31 1 l 31 35 l 36 40 q 86 42 93 44 q 107 48 110 62 q 116 98 116 214 l 116 472 q 116 588 110 624 q 107 638 93 642 q 86 644 36 646 l 31 651 l 31 685 l 36 689 q 84 686 187 686 q 246 686 283 688 q 357 690 394 690 q 478 690 518 675 q 571 655 589 606 q 598 582 598 549 q 598 417 448 361 q 473 320 500 278 l 575 162 q 642 60 664 45 q 675 38 695 38 l 700 33 z"},"T":{"x_min":0,"x_max":667,"ha":667,"o":"m 647 686 q 641 650 641 611 l 640 530 l 635 525 l 604 525 l 599 529 q 596 592 593 603 q 587 622 562 625 q 552 627 470 627 l 405 627 q 404 610 404 491 l 404 214 q 404 98 410 62 q 413 48 427 44 q 434 42 484 40 l 489 35 l 489 2 l 484 -3 q 436 0 333 0 q 229 0 183 -3 l 179 1 l 179 35 l 184 40 q 233 42 241 44 q 255 48 257 62 q 264 98 264 214 l 264 491 q 264 612 262 627 l 192 627 q 105 627 90 622 q 83 619 80 614 q 75 606 72 583 q 69 557 68 530 l 63 525 l 32 525 l 27 530 l 26 613 q 25 648 20 686 l 24 691 q 53 686 234 686 l 432 686 q 599 686 642 691 z"},"P":{"x_min":0,"x_max":610,"ha":610,"o":"m 585 536 q 585 436 516 379 q 448 323 361 323 q 332 323 302 330 q 298 343 285 365 l 295 375 q 316 369 333 369 q 382 369 412 404 q 442 438 442 501 q 442 638 319 638 q 305 638 261 632 q 256 620 256 472 l 256 214 q 256 98 263 62 q 265 48 279 44 q 284 43 346 40 l 352 34 l 352 2 l 347 -3 q 280 0 187 0 q 82 0 36 -3 l 31 1 l 31 34 l 37 40 q 86 42 93 44 q 107 48 110 62 q 116 98 116 214 l 116 472 q 116 588 110 624 q 107 638 93 642 q 86 644 36 646 l 31 652 l 31 684 l 37 689 q 84 686 184 686 q 225 686 302 688 q 379 689 391 689 q 524 689 564 621 q 585 586 585 536 z"},"|":{"x_min":0,"x_max":500,"ha":500,"o":"m 211 0 l 211 731 l 288 731 l 288 0 z"},"t":{"x_min":0,"x_max":333,"ha":333,"o":"m 325 64 q 322 60 304 43 q 275 16 255 -6 q 231 -14 207 -14 q 139 -14 107 25 q 94 42 90 65 q 85 92 85 135 l 87 252 l 87 374 l 74 374 l 48 373 l 28 373 l 22 377 l 22 390 l 26 397 q 35 403 54 415 q 76 429 87 438 l 87 504 q 87 546 83 592 q 120 604 142 613 q 165 622 207 643 l 219 633 q 213 572 211 524 l 207 440 l 223 440 q 276 440 314 443 l 320 438 l 313 381 l 308 376 l 207 376 l 207 210 q 207 131 208 117 q 211 96 226 83 q 241 71 266 71 q 286 71 314 82 z"},"M":{"x_min":0,"x_max":1000,"ha":1000,"o":"m 965 2 l 960 -3 q 912 0 810 0 q 705 0 659 -3 l 655 1 l 655 35 l 660 40 q 709 42 717 44 q 731 48 733 62 q 740 98 740 214 l 740 544 l 631 321 q 622 302 567 184 l 478 -11 l 445 -11 q 420 49 376 142 l 308 287 l 180 553 l 180 214 q 180 98 187 62 q 189 48 203 44 q 210 42 260 40 l 265 35 l 265 1 l 260 -3 q 204 0 156 0 q 100 0 43 -3 l 38 1 l 38 35 l 43 40 q 93 42 100 44 q 114 48 117 62 q 123 98 123 214 l 123 472 q 123 588 117 624 q 114 638 100 642 q 93 644 43 646 l 38 651 l 38 685 l 43 689 q 94 686 171 686 q 231 686 275 689 q 292 652 321 584 l 353 517 l 508 192 l 583 344 l 699 593 q 720 638 739 689 q 794 686 813 686 q 909 686 960 689 l 965 685 l 965 651 l 960 646 q 910 644 903 642 q 889 638 886 624 q 880 588 880 472 l 880 214 q 880 98 886 62 q 889 48 903 44 q 910 42 960 40 l 965 35 z"},"g":{"x_min":0,"x_max":556,"ha":556,"o":"m 545 -34 q 545 -141 466 -204 q 386 -268 257 -268 q 156 -268 97 -230 q 38 -192 38 -128 q 38 -85 57 -63 q 59 -61 109 -31 q 133 -17 144 -11 q 77 1 77 54 q 77 83 96 112 q 98 114 123 131 q 134 140 164 161 q 59 199 59 302 q 59 382 118 430 q 178 479 277 479 q 373 479 427 437 q 458 435 466 436 q 490 437 539 438 l 544 433 l 539 382 l 534 377 l 461 377 q 468 354 468 330 q 468 213 355 171 q 304 152 255 152 q 238 152 212 154 q 181 138 181 111 q 181 86 217 83 q 237 81 285 81 q 300 81 338 82 q 375 83 394 83 q 504 83 531 35 q 545 8 545 -34 z m 345 308 q 345 431 262 431 q 181 431 181 324 q 181 198 266 198 q 345 198 345 308 z m 434 -89 q 434 -36 396 -22 q 381 -17 334 -16 l 241 -15 q 226 -15 198 -16 q 131 -58 131 -111 q 131 -161 171 -189 q 210 -217 277 -217 q 348 -217 391 -182 q 434 -148 434 -89 z"},"j":{"x_min":0,"x_max":333,"ha":333,"o":"m 236 639 q 236 607 214 585 q 192 563 161 563 q 130 563 108 585 q 86 607 86 639 q 86 670 108 692 q 130 715 161 715 q 191 715 214 693 q 236 671 236 639 z m 232 472 q 226 440 226 322 l 226 239 l 227 95 q 228 -65 200 -137 q 162 -233 90 -260 q 61 -271 32 -271 q 23 -271 13 -269 l 2 -234 l 7 -227 q 16 -228 22 -228 q 73 -228 89 -176 q 104 -128 104 73 l 104 273 q 104 360 98 382 q 94 394 78 397 q 71 398 33 400 l 28 405 l 28 432 l 33 438 q 126 446 222 478 z"},"i":{"x_min":0,"x_max":333,"ha":333,"o":"m 238 639 q 238 607 216 585 q 194 563 163 563 q 132 563 110 585 q 88 607 88 639 q 88 671 110 693 q 132 715 163 715 q 193 715 216 693 q 238 671 238 639 z m 305 1 l 300 -3 q 254 0 167 0 q 79 0 33 -3 l 28 1 l 28 31 l 33 36 q 80 38 91 43 q 101 48 102 67 q 105 130 105 203 l 105 273 q 105 368 98 385 q 94 395 77 397 q 71 398 35 400 l 30 405 l 30 432 l 35 438 q 128 446 224 478 l 234 472 q 228 383 228 322 l 228 166 q 228 130 231 67 q 232 48 242 43 q 253 38 300 36 l 305 31 z m 167 -38 z"},"y":{"x_min":0,"x_max":556,"ha":556,"o":"m 545 426 l 541 422 q 509 422 497 403 q 491 393 462 332 q 398 192 356 88 l 278 -106 q 241 -196 199 -234 q 160 -270 103 -270 q 66 -270 33 -253 q 41 -218 50 -156 l 62 -153 q 88 -189 131 -189 q 183 -189 226 -89 l 246 -42 l 87 369 q 74 404 62 413 q 51 421 17 422 l 12 427 l 12 456 l 18 461 q 49 459 137 459 q 219 459 271 461 l 275 456 l 275 427 l 271 422 q 215 422 215 402 q 215 393 220 380 q 228 358 244 313 l 315 125 l 358 228 q 421 379 421 404 q 421 422 364 422 l 359 427 l 359 456 l 365 461 q 393 459 460 459 q 499 459 540 461 l 545 456 z m 396 -38 z m 283 497 z"},"@":{"x_min":0,"x_max":697,"ha":697,"o":"m 688 367 q 688 239 588 162 q 535 121 483 121 q 450 121 426 138 q 399 157 401 204 q 347 126 287 126 q 229 126 198 161 q 169 194 169 254 q 169 348 223 416 q 282 489 373 489 q 423 489 448 458 l 452 478 l 522 491 l 534 480 q 508 383 492 302 q 476 220 476 190 q 476 153 501 153 q 532 153 562 187 q 584 212 598 247 q 619 298 619 368 q 619 493 522 549 q 469 579 392 579 q 314 579 243 540 q 172 501 132 425 q 94 353 94 269 q 94 162 155 91 q 223 13 339 13 q 471 13 570 100 l 578 92 q 575 80 569 63 q 465 -21 327 -21 q 133 -21 49 112 q 6 179 6 265 q 6 358 56 437 q 103 511 187 559 q 276 609 394 609 q 517 609 602 544 q 688 477 688 367 z m 423 403 q 423 459 379 459 q 325 459 284 352 q 264 301 264 257 q 264 204 278 187 q 292 170 310 170 q 334 170 360 200 q 393 237 413 329 q 423 373 423 403 z"},".":{"x_min":0,"x_max":250,"ha":250,"o":"m 125 140 q 156 140 179 117 q 201 95 201 62 q 201 30 179 7 q 156 -15 125 -15 q 94 -15 71 8 q 48 30 48 62 q 48 94 71 117 q 93 140 125 140 z"},"p":{"x_min":0,"x_max":611,"ha":611,"o":"m 564 283 q 564 223 543 168 q 527 128 502 101 q 491 88 460 65 q 428 40 379 3 q 351 -16 306 -16 q 264 -16 221 0 l 221 -184 q 221 -206 227 -213 q 229 -217 240 -220 q 248 -222 302 -226 l 308 -230 l 308 -261 l 303 -266 q 237 -262 153 -262 q 91 -262 30 -266 l 25 -261 l 25 -231 l 30 -226 q 79 -225 86 -218 q 91 -214 92 -209 q 94 -200 96 -161 q 98 -132 98 -86 l 99 -11 l 99 273 q 99 278 96 345 q 95 377 91 386 q 87 395 71 397 q 65 398 28 400 l 23 405 l 23 432 l 28 438 q 121 446 217 478 l 228 472 q 228 451 223 387 q 256 415 306 455 q 330 473 379 473 q 500 473 544 380 q 564 338 564 283 z m 439 223 q 439 330 383 367 q 353 386 321 386 q 261 386 221 337 l 221 95 q 266 48 319 48 q 398 48 425 130 q 439 172 439 223 z"},"X":{"x_min":0,"x_max":667,"ha":667,"o":"m 649 3 l 644 -1 l 544 0 q 520 0 459 -1 q 444 17 411 78 l 310 266 l 271 211 q 198 106 135 -1 q 113 0 90 0 q 45 0 24 -1 l 19 3 l 19 35 l 24 40 q 64 43 72 48 q 87 58 139 128 l 203 214 q 207 219 281 320 l 244 385 l 184 488 q 121 598 87 618 q 76 625 64 625 q 54 625 34 623 l 27 628 l 23 654 l 28 661 q 97 675 205 700 q 236 680 269 628 q 284 603 317 541 l 373 438 l 436 531 q 515 646 538 688 q 558 686 578 686 q 610 686 644 688 l 649 683 l 649 651 l 644 646 q 610 646 599 639 q 588 632 557 592 q 525 553 473 482 q 444 443 403 385 q 427 340 473 259 l 535 151 q 587 62 600 51 q 614 40 644 40 l 649 35 z"},"*":{"x_min":0,"x_max":444,"ha":444,"o":"m 398 478 l 388 467 q 317 487 236 501 q 269 443 315 379 l 312 372 q 267 355 229 335 l 214 342 q 213 379 202 490 q 161 448 102 384 l 85 386 q 70 422 44 461 l 48 469 l 186 521 q 116 556 47 582 l 44 589 q 79 640 88 667 l 104 667 q 133 631 206 551 q 215 642 219 696 l 227 702 q 268 684 318 681 l 324 666 q 300 633 241 537 q 287 544 383 569 l 388 565 q 391 520 398 478 z"},"Y":{"x_min":0,"x_max":667,"ha":667,"o":"m 659 666 q 582 561 490 409 q 438 323 433 299 q 430 286 430 262 l 430 214 q 430 71 438 55 q 442 48 450 46 q 462 42 510 40 l 515 35 l 515 2 l 510 -3 q 461 0 359 0 q 255 0 209 -3 l 205 1 l 205 35 l 209 40 q 257 42 270 46 q 277 48 281 55 q 290 71 290 214 l 290 271 q 290 290 213 420 q 135 552 88 600 q 66 623 58 626 q 50 629 21 629 l 16 634 l 16 662 l 21 667 q 140 690 174 700 q 199 688 219 668 q 261 628 331 488 l 395 360 q 423 406 504 546 l 559 644 q 567 660 583 688 l 654 688 l 659 683 z m 359 -38 z m 359 717 z"},"c":{"x_min":0,"x_max":444,"ha":444,"o":"m 420 62 l 399 13 q 333 -21 268 -21 q 159 -21 102 41 q 44 104 44 212 q 44 313 88 365 q 101 380 135 404 q 205 454 229 463 q 252 473 301 473 q 368 473 411 453 l 416 444 q 416 438 409 399 l 404 366 q 402 357 399 300 l 395 295 l 365 295 l 360 300 q 357 344 354 361 q 332 399 271 399 q 167 399 167 265 q 167 167 209 111 q 251 53 329 53 q 375 53 411 73 z"},"!":{"x_min":0,"x_max":278,"ha":278,"o":"m 120 201 q 116 221 109 286 q 103 350 90 435 q 68 582 68 625 q 68 632 68 646 q 80 653 168 691 l 219 690 q 219 676 219 671 q 219 636 208 559 l 186 394 l 162 218 l 125 198 z m 142 139 q 172 139 195 116 q 217 94 217 62 q 217 30 195 8 q 173 -15 142 -15 q 110 -15 88 7 q 65 30 65 62 q 65 93 88 116 q 110 139 142 139 z"},"/":{"x_min":0,"x_max":296,"ha":296,"o":"m -7 -25 l 230 732 l 237 736 l 303 736 l 306 729 l 69 -28 l 62 -32 l -3 -32 z"},"[":{"x_min":0,"x_max":333,"ha":333,"o":"m 306 -105 l 302 -110 q 225 -106 196 -106 q 153 -106 76 -110 l 69 -102 q 74 -47 76 33 q 77 70 78 135 l 80 236 l 80 377 q 80 419 78 491 l 75 598 q 74 645 69 717 l 74 724 q 144 720 195 720 q 225 720 302 723 l 306 719 l 306 689 l 301 684 q 217 681 207 671 q 197 662 195 596 q 194 566 193 486 l 192 396 l 193 127 q 194 -15 198 -35 q 201 -56 214 -62 q 227 -68 301 -71 l 306 -76 z"},"6":{"x_min":0,"x_max":500,"ha":500,"o":"m 469 222 q 469 81 369 11 q 322 -21 252 -21 q 152 -21 96 51 q 39 124 39 257 q 39 386 85 471 q 134 561 214 614 q 296 668 397 668 l 436 636 l 420 620 q 403 623 387 623 q 312 623 255 567 q 230 542 211 504 q 180 441 169 330 q 234 391 248 396 q 279 410 320 410 q 383 410 424 363 q 469 312 469 222 z m 351 168 q 351 244 323 284 q 297 322 252 322 q 194 322 175 272 q 166 249 166 207 q 166 100 207 55 q 229 30 264 30 q 351 30 351 168 z"},"r":{"x_min":0,"x_max":389,"ha":389,"o":"m 388 472 l 385 385 q 384 363 383 336 l 362 330 q 339 363 299 363 q 262 363 238 333 q 224 315 224 280 l 224 166 q 224 130 227 67 q 228 49 237 43 q 247 38 305 36 l 310 32 l 310 2 l 305 -3 q 233 0 163 0 q 75 0 29 -3 l 24 1 l 24 31 l 29 36 q 76 38 87 43 q 97 48 98 67 q 102 130 102 203 l 102 273 q 102 371 94 385 q 89 395 73 397 q 67 398 31 400 l 26 405 l 26 432 l 31 438 q 119 446 216 478 l 227 472 l 226 376 q 256 411 299 458 q 319 478 354 478 q 374 478 388 472 z"},"2":{"x_min":0,"x_max":500,"ha":500,"o":"m 472 110 q 466 53 470 1 l 464 -5 q 330 0 245 0 q 155 0 33 -5 l 26 1 l 26 45 l 126 147 q 238 261 272 320 q 292 354 300 383 q 309 412 309 444 q 309 561 202 561 q 142 561 107 515 q 102 494 88 442 l 83 437 l 55 437 l 50 442 l 68 605 q 129 667 239 667 q 337 667 391 615 q 440 568 440 491 q 440 459 433 432 q 417 377 371 322 q 332 275 252 200 q 224 171 165 116 l 166 110 l 252 110 q 290 110 324 111 l 408 113 q 440 114 464 116 z"},"{":{"x_min":0,"x_max":310,"ha":310,"o":"m 292 -121 l 258 -121 q 176 -121 139 -95 q 95 -63 95 15 l 95 196 q 95 245 83 265 q 76 275 67 282 q 53 292 36 294 l 0 299 l 0 319 l 36 324 q 53 326 67 336 q 86 350 92 379 q 95 394 95 422 l 95 604 q 95 682 139 713 q 176 739 258 739 q 266 739 292 739 l 292 719 q 204 710 196 647 q 195 639 195 608 l 195 438 q 195 375 172 347 q 148 320 95 309 q 148 298 171 271 q 195 244 195 180 l 195 10 q 195 -21 196 -29 q 204 -92 292 -101 z"},"9":{"x_min":0,"x_max":500,"ha":500,"o":"m 461 389 q 461 260 415 175 q 366 85 286 33 q 203 -21 104 -21 l 65 10 l 77 29 q 91 24 113 24 q 189 24 246 81 q 269 103 289 141 q 320 201 332 316 q 259 250 250 249 q 218 237 181 237 q 116 237 75 285 q 31 336 31 425 q 31 567 131 636 q 179 668 248 668 q 379 668 434 546 q 461 486 461 389 z m 334 439 q 334 530 308 573 q 281 617 236 617 q 180 617 160 556 q 149 523 149 479 q 149 403 177 362 q 203 324 248 324 q 306 324 325 375 q 334 399 334 439 z"}," ":{"x_min":0,"x_max":250,"ha":250,"o":""},"I":{"x_min":0,"x_max":389,"ha":389,"o":"m 350 2 l 345 -3 q 296 0 194 0 q 93 0 44 -3 l 40 2 l 40 35 l 44 40 q 94 42 102 44 q 116 48 118 62 q 125 98 125 214 l 125 472 q 125 588 118 624 q 116 638 102 642 q 94 644 44 646 l 40 651 l 40 685 l 44 689 q 91 686 195 686 q 298 686 345 689 l 350 685 l 350 651 l 345 646 q 295 644 288 642 q 273 638 271 624 q 265 588 265 472 l 265 214 q 265 98 271 62 q 273 48 288 44 q 295 42 345 40 l 350 35 z m 194 717 z m 194 -38 z"},"H":{"x_min":0,"x_max":833,"ha":833,"o":"m 802 2 l 797 -3 q 749 0 646 0 q 542 0 496 -3 l 491 1 l 491 35 l 497 40 q 546 42 554 44 q 568 48 570 62 q 577 98 577 214 l 577 332 q 552 334 418 334 q 295 334 256 332 l 256 214 q 256 98 263 62 q 265 48 279 44 q 287 42 336 40 l 341 35 l 341 2 l 337 -3 q 288 0 187 0 q 82 0 36 -3 l 31 1 l 31 35 l 36 40 q 86 42 93 44 q 107 48 110 62 q 116 98 116 214 l 116 472 q 116 588 110 624 q 107 638 93 642 q 86 644 36 646 l 31 651 l 31 685 l 36 689 q 83 686 187 686 q 292 686 337 689 l 341 685 l 341 651 l 336 646 q 287 644 279 642 q 265 638 263 624 q 256 588 256 472 l 256 392 q 308 389 399 389 q 542 389 577 392 l 577 472 q 577 588 570 624 q 568 638 554 642 q 546 644 497 646 l 491 651 l 491 685 l 496 689 q 543 686 646 686 q 753 686 797 689 l 802 685 l 802 651 l 797 646 q 747 644 740 642 q 726 638 723 624 q 717 588 717 472 l 717 214 q 717 98 723 62 q 726 48 740 44 q 747 42 797 40 l 802 35 z"},"4":{"x_min":0,"x_max":500,"ha":500,"o":"m 473 2 l 467 -4 q 396 0 310 0 q 260 0 147 -4 l 142 1 l 142 32 l 147 37 l 200 41 q 239 44 246 52 q 256 62 257 104 l 259 168 l 195 168 l 97 167 q 71 167 20 166 l 13 207 q 33 269 119 429 q 208 593 257 655 l 380 679 l 389 671 q 380 577 380 364 l 380 249 l 396 249 q 418 249 464 251 l 470 246 q 468 198 470 174 l 464 168 q 456 168 439 168 l 380 168 q 380 61 391 51 q 399 42 428 40 q 450 38 468 36 l 473 31 z m 265 589 q 200 485 169 426 q 147 386 84 249 l 260 249 z"},"~":{"x_min":0,"x_max":500,"ha":500,"o":"m 483 293 q 459 241 428 214 q 388 179 351 179 q 320 179 273 200 q 246 212 201 234 q 171 249 154 249 q 115 249 66 160 l 17 215 q 74 338 153 338 q 184 338 230 317 q 258 305 303 283 q 333 268 350 268 q 389 268 435 350 z"},"D":{"x_min":0,"x_max":831,"ha":831,"o":"m 785 384 q 785 218 677 109 q 625 56 549 27 q 469 -5 361 -3 l 189 0 q 119 1 73 -3 l 68 2 l 68 16 l 70 21 q 106 44 109 50 q 114 59 115 115 l 116 225 l 116 472 q 116 588 110 624 q 107 638 93 642 q 86 644 36 646 l 31 651 l 31 685 l 36 689 q 88 686 135 686 q 249 686 340 689 q 385 690 431 690 q 558 690 626 662 q 700 630 742 562 q 785 492 785 384 z m 635 360 q 635 496 570 568 q 536 606 484 622 q 436 637 348 637 q 303 637 261 630 q 256 576 256 366 l 257 152 q 258 81 261 58 q 304 51 349 51 q 446 51 502 79 q 563 110 599 184 q 635 260 635 360 z"},"^":{"x_min":0,"x_max":500,"ha":500,"o":"m 485 323 l 388 323 l 250 592 l 112 323 l 15 323 l 204 693 l 296 693 z"},"0":{"x_min":0,"x_max":500,"ha":500,"o":"m 468 354 q 468 162 420 80 q 362 -21 243 -21 q 128 -21 76 67 q 32 141 32 311 q 32 444 59 521 q 83 591 136 630 q 187 667 257 667 q 367 667 415 601 q 468 528 468 354 z m 348 273 q 348 464 320 547 q 298 614 245 614 q 195 614 174 563 q 151 509 151 379 q 151 216 171 130 q 180 89 190 71 q 214 29 256 29 q 326 29 340 138 q 348 194 348 273 z"},"F":{"x_min":0,"x_max":558,"ha":558,"o":"m 521 685 l 514 629 q 512 611 510 581 l 507 542 l 502 536 l 474 536 l 469 541 q 468 607 461 616 q 450 631 325 631 q 305 631 262 628 q 256 579 256 450 l 256 384 l 312 382 q 336 382 404 384 q 417 385 421 392 q 429 403 430 456 l 435 461 l 465 461 l 470 456 q 468 401 468 356 q 468 307 470 248 l 465 244 l 433 244 l 428 249 q 428 300 423 309 q 415 326 373 329 q 344 332 316 332 q 283 332 256 330 l 256 214 q 256 98 263 62 q 265 48 279 44 q 283 43 349 40 l 354 35 l 354 2 l 349 -3 l 152 0 q 110 0 36 -3 l 31 1 l 31 35 l 36 40 q 86 42 93 44 q 107 48 110 62 q 116 98 116 214 l 116 472 q 116 588 110 624 q 107 638 93 642 q 86 644 36 646 l 31 651 l 31 685 l 36 689 q 83 686 187 686 q 253 686 516 689 z"},"`":{"x_min":0,"x_max":333,"ha":333,"o":"m 260 546 l 233 532 l 73 720 l 85 733 l 192 719 l 260 553 z"},"k":{"x_min":0,"x_max":611,"ha":611,"o":"m 601 1 l 596 -3 q 563 -1 516 -1 q 473 -1 430 -3 q 403 46 298 162 q 243 223 228 234 l 231 67 q 232 48 242 43 q 253 38 300 36 l 305 31 l 305 1 l 300 -3 q 254 0 167 0 q 79 0 33 -3 l 28 1 l 28 31 l 33 36 q 80 38 91 43 q 101 48 102 67 q 105 130 105 289 l 105 453 q 105 555 102 619 q 101 637 91 642 q 82 648 35 649 l 30 655 l 30 682 l 35 687 q 129 697 224 728 l 234 722 q 234 708 232 673 q 228 557 228 415 l 228 255 l 276 295 q 308 321 365 381 l 416 435 q 430 450 438 461 q 479 460 505 460 q 538 460 564 461 l 569 457 l 569 427 l 564 422 l 529 420 q 507 419 484 403 q 476 397 447 374 l 406 340 l 392 327 l 350 290 l 455 167 q 554 51 574 42 q 584 37 596 37 l 601 31 z"},"u":{"x_min":0,"x_max":611,"ha":611,"o":"m 586 2 l 582 -2 q 508 0 489 0 q 473 0 441 -1 q 410 -2 394 -2 l 390 1 q 394 42 394 78 q 369 59 305 -3 q 273 -16 237 -16 q 171 -16 133 20 q 95 56 95 124 q 95 132 96 159 q 97 186 97 210 l 97 273 q 97 370 90 385 q 85 395 69 397 q 63 398 26 400 l 21 405 l 21 432 l 26 438 q 119 446 215 478 l 226 472 q 219 391 219 322 l 219 227 q 219 160 224 135 q 229 106 247 91 q 265 76 296 76 q 334 76 363 100 q 390 125 392 156 q 393 180 393 186 l 393 273 q 393 369 385 385 q 381 395 365 397 q 359 398 322 400 l 316 405 l 316 432 l 322 438 q 415 446 511 478 l 521 472 q 515 398 515 322 l 515 168 q 515 65 521 52 q 523 45 530 43 q 542 40 581 37 l 586 32 z m 303 497 z m 303 -38 z"},"]":{"x_min":0,"x_max":333,"ha":333,"o":"m 264 -102 l 257 -110 q 180 -106 137 -106 q 108 -106 31 -110 l 27 -105 l 27 -76 l 32 -71 q 106 -68 119 -62 q 132 -56 135 -35 q 139 -15 140 127 l 141 218 l 141 396 q 141 423 140 486 q 139 637 134 655 q 128 675 104 679 q 91 682 32 684 l 27 689 l 27 719 l 31 723 q 108 720 138 720 q 189 720 259 724 l 264 717 q 259 645 258 598 l 255 491 q 253 419 253 377 l 253 236 l 259 -41 q 260 -58 264 -102 z"},"U":{"x_min":0,"x_max":778,"ha":778,"o":"m 752 651 l 747 646 q 689 646 682 616 q 678 599 676 542 q 675 499 675 419 l 675 269 q 675 124 618 62 q 542 -21 402 -21 q 274 -21 202 22 q 142 58 123 125 q 111 167 111 346 l 111 472 q 111 588 105 624 q 103 638 88 642 q 81 644 31 646 l 26 651 l 26 684 l 31 689 q 78 686 182 686 q 287 686 332 689 l 336 684 l 336 651 l 332 646 q 282 644 274 642 q 260 638 258 624 q 251 588 251 472 l 251 372 q 251 187 268 146 q 301 63 432 63 q 517 63 565 105 q 587 125 596 146 q 605 167 610 209 q 614 250 614 291 l 614 392 q 614 520 613 567 q 612 611 607 624 q 604 634 590 639 q 579 644 530 646 l 525 651 l 525 684 l 530 689 q 573 686 618 686 q 651 686 747 689 l 752 684 z m 402 717 z m 402 -38 z"},"o":{"x_min":0,"x_max":556,"ha":556,"o":"m 516 242 q 516 69 400 8 q 343 -21 271 -21 q 158 -21 99 43 q 41 108 41 229 q 41 397 155 453 q 211 480 285 480 q 441 480 492 372 q 516 320 516 242 z m 381 202 q 381 324 354 376 q 328 429 273 429 q 176 429 176 253 q 176 28 285 28 q 353 28 371 103 q 381 142 381 202 z m 283 -38 z m 283 497 z"},"N":{"x_min":0,"x_max":833,"ha":833,"o":"m 801 651 l 795 646 q 746 644 738 642 q 724 638 722 624 q 715 588 715 472 l 715 274 q 715 55 722 -12 l 715 -16 q 660 -7 632 -3 q 501 144 185 533 l 185 214 q 185 98 191 62 q 194 48 208 44 q 215 42 265 40 l 270 35 l 270 1 l 265 -3 q 209 0 161 0 q 104 0 48 -3 l 43 1 l 43 35 l 48 40 q 98 42 105 44 q 119 48 122 62 q 128 98 128 214 l 128 472 q 128 588 122 624 q 119 638 105 642 q 98 644 48 646 l 43 651 l 43 685 l 48 689 q 94 686 136 686 q 202 686 246 689 q 421 455 659 187 l 659 472 q 659 588 652 624 q 650 638 636 642 q 628 644 579 646 l 574 651 l 574 685 l 579 689 q 633 686 683 686 q 746 686 796 689 l 801 685 z"},"+":{"x_min":0,"x_max":500,"ha":500,"o":"m 485 251 l 293 251 l 293 63 l 207 63 l 207 251 l 16 251 l 16 335 l 207 335 l 207 524 l 293 524 l 293 335 l 485 335 z"},"G":{"x_min":0,"x_max":833,"ha":833,"o":"m 785 247 l 780 241 q 750 234 745 221 q 740 208 740 122 q 740 81 744 40 q 581 -21 448 -21 q 273 -21 165 76 q 57 174 57 343 q 57 563 248 657 q 335 700 470 700 q 548 700 628 683 q 694 669 732 651 l 737 642 q 724 599 716 493 l 710 488 l 681 488 l 676 493 q 676 502 674 531 q 672 560 669 572 q 648 601 596 622 q 541 643 476 643 q 303 643 237 503 q 207 439 207 354 q 207 218 279 129 q 354 36 475 36 q 539 36 599 63 q 602 98 602 157 q 602 206 599 216 q 596 224 580 227 q 567 230 498 234 l 492 239 l 492 270 l 498 275 q 568 273 646 273 q 691 274 780 275 l 785 270 z"},"q":{"x_min":0,"x_max":611,"ha":611,"o":"m 587 -261 l 583 -266 q 510 -262 459 -262 q 407 -262 310 -266 l 305 -261 l 305 -230 l 310 -226 q 376 -221 386 -213 q 391 -209 391 -184 l 391 71 q 320 15 290 -12 q 270 -21 241 -21 q 156 -21 106 36 q 53 96 53 205 q 53 304 94 358 q 107 376 156 409 q 208 444 253 462 q 281 473 313 473 q 381 473 457 431 l 508 473 l 530 462 l 522 412 q 518 386 516 327 q 513 272 513 207 l 513 -11 q 513 -119 515 -161 q 518 -212 525 -218 q 529 -222 536 -224 q 542 -225 583 -226 l 587 -231 z m 391 130 l 391 354 q 350 411 283 411 q 178 411 178 245 q 178 170 205 123 q 235 72 292 72 q 354 72 391 130 z"},"d":{"x_min":0,"x_max":611,"ha":611,"o":"m 586 1 l 581 -3 q 533 0 495 0 q 458 0 396 -3 l 391 0 q 393 24 393 80 q 375 65 343 35 q 302 -2 290 -10 q 274 -17 239 -17 q 156 -17 104 46 q 53 109 53 209 q 53 306 93 360 q 103 375 153 411 q 212 453 239 464 q 262 474 298 474 q 349 474 393 452 l 393 479 q 393 608 387 631 q 383 644 367 646 q 359 648 322 649 l 317 655 l 317 682 l 322 687 q 416 697 511 728 l 521 722 q 521 720 520 673 q 515 568 515 358 l 515 200 q 515 63 521 49 q 525 41 532 39 q 543 36 581 33 l 586 28 z m 393 256 l 393 348 q 358 390 326 402 q 304 410 279 410 q 211 410 192 340 q 181 302 181 254 q 181 153 229 104 q 253 79 295 79 q 330 79 360 101 q 387 120 392 143 q 393 149 393 256 z"},"1":{"x_min":0,"x_max":500,"ha":500,"o":"m 456 1 l 451 -4 q 382 0 284 0 q 188 0 81 -4 l 76 1 l 76 31 l 82 36 q 106 39 130 41 q 172 44 184 49 q 192 53 198 67 q 207 90 207 252 l 207 374 q 207 429 205 513 l 204 549 q 204 574 194 574 q 189 574 165 562 q 98 532 50 508 l 44 512 q 42 540 34 574 l 35 578 q 169 616 336 680 l 346 672 q 344 644 341 587 q 339 565 338 472 l 336 280 q 336 74 343 59 q 348 47 358 45 q 375 40 450 36 l 456 31 z"},"5":{"x_min":0,"x_max":500,"ha":500,"o":"m 453 236 q 453 130 372 56 q 288 -21 167 -21 q 114 -21 54 1 q 51 29 23 138 l 26 145 l 49 153 l 56 150 q 105 38 213 38 q 290 38 321 104 q 335 135 335 175 q 335 240 300 278 q 265 316 203 316 q 147 316 91 275 l 72 286 q 78 380 78 439 l 78 507 q 78 579 71 659 l 77 664 q 195 658 276 658 q 328 658 424 664 l 429 656 q 423 607 423 586 q 423 574 424 552 l 419 546 q 359 549 275 549 q 174 549 131 545 l 127 385 q 198 419 259 419 q 349 419 401 369 q 453 319 453 236 z"}}}
